<?xml version="1.0" encoding="UTF-8" standalone="no"?>
<!-- Created with Inkscape (http://www.inkscape.org/) -->
<!DOCTYPE svg PUBLIC "-//W3C//DTD SVG 1.0//EN"
	"http://www.w3.org/TR/2001/REC-SVG-20010904/DTD/svg10.dtd">
<svg
   id="svg2445"
   width="250"
   height="323"
   version="1.0">
  <path
     style="fill:none;fill-rule:evenodd;stroke:#000000;stroke-width:1px;stroke-linecap:butt;stroke-linejoin:miter;stroke-opacity:1"
     d="M 179.79534,67.941488 C 179.79534,67.941488 166.20616,63.760201 179.79534,67.941488 z"
     id="path2464" />
  <path
     style="opacity:1;fill:#fce94f;fill-opacity:1;fill-rule:nonzero;stroke:#90ee90;stroke-width:0.10430892999999999;stroke-miterlimit:4;stroke-dasharray:none;stroke-opacity:1"
     d=""
     id="path3240" />
  <path
     style="fill:#fdee76;fill-rule:evenodd;stroke:#000000;stroke-width:1px;stroke-linecap:butt;stroke-linejoin:miter;stroke-opacity:1;fill-opacity:1"
     d="M 92.812845,194.40389 C 93.399457,201.39281 73.220264,214.26634 69.609633,225.43469 L 79.114563,239.69209 C 83.436459,240.02096 85.016176,233.17893 92.063926,225.51729 C 95.587801,221.68647 100.25684,215.46153 105.24684,214.51854 C 111.14509,213.4039 118.57422,211.95319 124.40276,208.10217 C 130.19014,204.06089 130.3474,198.63949 130.55301,193.28566 L 98.124424,151.91126 C 92.555999,162.09677 87.804408,173.54504 92.812845,194.40389 z"
     id="path3256" />
  <path
     style="fill:#fdee76;fill-rule:evenodd;stroke:#000000;stroke-width:1px;stroke-linecap:butt;stroke-linejoin:miter;stroke-opacity:1;fill-opacity:1"
     d="M 79.816513,3.9555015 C 82.862371,80.93819 73.392134,74.594307 107.79816,191.80734 C 122.41129,205.59261 135.45686,201.47806 134.34786,183.39086 C 127.01852,131.0422 119.34995,92.417888 116.19175,81.982162 C 112.55033,69.949735 119.03819,41.925196 111.41208,4.9504909 C 110.89969,2.4661839 109.58991,6.0635865 109.27729,9.2319447 C 108.95242,3.3615053 104.25218,2.7611944 102.03562,6.6637643 C 100.52707,2.0409734 94.187484,4.5332071 94.06929,6.4705486 C 92.363794,3.0790919 85.673559,3.3156278 84.96155,7.6592068 C 84.246345,4.4259101 79.816513,3.9555015 79.816513,3.9555015 z"
     id="path2462" />
  <path
     style="fill:#ffc000;fill-rule:evenodd;stroke:#000000;stroke-width:1px;stroke-linecap:butt;stroke-linejoin:miter;stroke-opacity:1;fill-opacity:1"
     d="M 158.88891,133.79676 C 145.20978,149.74588 148.67419,156.24975 131.71054,171.42834 C 97.486228,169.34626 105.2603,181.49788 104.48715,182.2961 C 109.39318,176.38804 115.76822,175.42379 120.3411,174.17219 C 129.20982,171.7448 127.35509,175.4919 124.39329,176.65495 C 118.38159,181.82995 111.46552,186.55277 110.41662,194.20917 C 118.0872,190.83597 117.16979,183.95575 130.90853,178.7456 C 129.22583,182.11574 129.28276,183.65889 133.54155,181.64121 C 136.19208,180.38547 133.59088,185.27268 129.70143,190.04215 C 126.93781,193.43106 123.93806,196.43632 116.03072,198.60671 C 129.43483,199.72721 137.54477,195.02411 137.98247,181.88156 C 136.88767,168.10183 155.42308,168.84282 168.15798,134.5862 C 168.15798,134.5862 163.83776,126.23162 158.88891,133.79676 z"
     id="path2466" />
  <path
     id="path2468"
     d="M 158.88891,133.79676 C 162.98849,129.50627 159.35722,137.35249 162.52573,134.78399 C 163.68894,133.84105 164.71363,132.85759 164.62546,134.59684 C 164.32538,140.5163 168.03897,134.0348 168.03897,134.0348 L 184.51018,76.442895 C 213.48535,62.367975 207.43439,83.15296 206.97371,84.666636 C 201.44751,95.113326 189.78589,88.663498 187.1126,93.029211 C 186.96245,92.655106 194.9455,102.04411 211.94444,90.266186 C 215.79829,87.975865 214.21811,68.288095 203.69892,65.594959 L 181.63011,69.915077 C 148.41496,59.256296 134.66705,72.133667 150.52633,89.893245 C 155.65456,91.069739 158.25811,95.612472 166.20616,93.029211 C 164.56221,84.266033 139.7399,81.941277 152.87286,71.589226 C 169.32178,68.242939 178.7996,75.092398 176.93705,78.533538 C 170.921,96.954612 173.32682,101.9007 158.88891,133.79676 z"
     style="fill:#fdee76;fill-rule:evenodd;stroke:#000000;stroke-width:1px;stroke-linecap:butt;stroke-linejoin:miter;stroke-opacity:1;fill-opacity:1" />
  <path
     style="fill:none;fill-rule:evenodd;stroke:#000000;stroke-width:0.4;stroke-linecap:butt;stroke-linejoin:miter;stroke-opacity:1;stroke-miterlimit:4;stroke-dasharray:none"
     d="M 65.975396,192.16744 L 65.975396,222.91868 L 70.448304,194.12433 L 66.814066,223.75735 L 73.243871,191.88788 L 66.534509,223.19824 L 74.641655,197.47901 L 67.373179,222.63912 L 78.275893,195.52212 L 68.491406,223.75735 L 67.652736,225.15513 L 80.23279,196.9199 L 67.932293,225.43469 L 85.264812,201.67237 L 70.448304,225.71425 L 87.501266,205.02705 L 70.168747,226.55292 L 90.296834,206.14527 L 71.007417,226.83247 L 71.566531,227.39159 L 90.296834,207.82261 L 71.846088,227.9507 L 91.974174,209.49996 L 72.405201,228.78937 L 94.769742,209.2204 L 72.964315,229.62804 L 94.490185,212.57508 L 73.243871,230.46671 L 95.608412,213.97286 L 73.243871,231.30538 L 97.006196,215.09109 L 74.082542,231.30538 L 74.921212,232.42361 L 98.124423,215.6502 L 75.480325,233.26228 L 98.683537,217.32754 L 75.759882,233.54184 L 100.91999,219.00488 L 75.759882,234.66006 L 100.64043,221.5209 L 76.598552,235.21918 L 103.71556,222.08001 L 76.598552,236.05785 L 102.59733,224.31646 L 77.716779,236.89652 L 103.15644,225.71425 L 79.114563,237.73519 L 104.55423,227.39159 L 79.39412,238.01474 L 105.95201,228.50981 L 80.23279,238.85342 L 107.3498,229.9076 L 81.071461,239.69209 L 108.74758,231.58494 L 80.512347,239.69209 L 109.30669,234.10095 L 82.469244,240.2512 L 109.86581,235.49873 L 82.189688,241.08987 L 65.695839,223.75735 L 66.814066,222.35957 L 67.093623,225.15513 L 82.748801,241.64898 L 82.189688,239.13297 L 80.791904,239.41253 L 81.07146,240.53076"
     id="path3258" />
  <path
     style="fill:#90ee90;fill-rule:evenodd;stroke:#000000;stroke-width:1px;stroke-linecap:butt;stroke-linejoin:miter;stroke-opacity:1;fill-opacity:1"
     d="M 66.62873,224.38692 C 63.075096,224.19466 59.064844,227.93104 58.561102,231.02444 C 58.225823,233.08334 62.25166,236.91763 62.25166,236.91763 L 43.685445,255.62693 C 25.23849,264.97951 23.581262,261.91597 10.213163,280.20198 C -11.291385,318.84605 16.726118,335.07175 39.87997,307.43708 C 46.419306,296.15845 55.50405,286.73102 52.524838,268.5298 L 71.978482,246.64445 C 71.978482,246.64445 74.219563,250.59402 75.869211,250.53518 C 78.76345,250.43195 82.156887,246.13593 82.191645,243.24006 C 82.279666,235.90655 74.437729,224.80942 66.62873,224.38692 z"
     id="path3260" />
  <path
     transform="translate(71.392704,60.302575)"
     style="font-size:24px;font-style:normal;font-variant:normal;font-weight:normal;font-stretch:normal;text-align:justify;line-height:125%;writing-mode:lr-tb;text-anchor:start;fill:#000000;fill-opacity:1;stroke:none;stroke-width:1px;stroke-linecap:butt;stroke-linejoin:miter;stroke-opacity:1;font-family:Bitstream Vera Sans;-inkscape-font-specification:Bitstream Vera Sans"
     d="M 40.765625,236.78917 L 37.554688,245.4962 L 43.988281,245.4962 L 40.765625,236.78917 M 39.429688,234.45714 L 42.113281,234.45714 L 48.78125,251.95323 L 46.320312,251.95323 L 44.726562,247.46495 L 36.839844,247.46495 L 35.246094,251.95323 L 32.75,251.95323 L 39.429688,234.45714"
     id="flowRoot2394" />
  <path
     transform="translate(46.439914,11.783262)"
     style="font-size:24px;font-style:normal;font-variant:normal;font-weight:normal;font-stretch:normal;text-align:start;line-height:125%;writing-mode:lr-tb;text-anchor:start;fill:#000000;fill-opacity:1;stroke:none;stroke-width:1px;stroke-linecap:butt;stroke-linejoin:miter;stroke-opacity:1;font-family:Bitstream Vera Sans;-inkscape-font-specification:Bitstream Vera Sans"
     d="M 119.78516,247.75401 L 119.78516,254.16417 L 123.58203,254.16417 C 124.85546,254.16417 125.79686,253.90245 126.40625,253.37901 C 127.02343,252.84776 127.33202,252.03917 127.33203,250.95323 C 127.33202,249.85949 127.02343,249.0548 126.40625,248.53917 C 125.79686,248.01574 124.85546,247.75402 123.58203,247.75401 L 119.78516,247.75401 M 119.78516,240.5587 L 119.78516,245.83214 L 123.28906,245.83214 C 124.4453,245.83215 125.30468,245.6173 125.86719,245.1876 C 126.43749,244.75012 126.72264,244.08605 126.72266,243.19542 C 126.72264,242.31262 126.43749,241.65246 125.86719,241.21495 C 125.30468,240.77746 124.4453,240.55871 123.28906,240.5587 L 119.78516,240.5587 M 117.41797,238.61339 L 123.46484,238.61339 C 125.26952,238.6134 126.66014,238.9884 127.63672,239.73839 C 128.61327,240.4884 129.10155,241.55481 129.10156,242.9376 C 129.10155,244.00793 128.85155,244.85949 128.35156,245.49229 C 127.85155,246.12511 127.11718,246.51965 126.14844,246.67589 C 127.31249,246.9259 128.21483,247.44933 128.85547,248.2462 C 129.50389,249.03527 129.82811,250.02355 129.82812,251.21104 C 129.82811,252.77355 129.29686,253.98058 128.23438,254.83214 C 127.17186,255.6837 125.66015,256.10948 123.69922,256.10948 L 117.41797,256.10948 L 117.41797,238.61339"
     id="flowRoot2404" />
  <path
     transform="translate(10.396996,6.9313302)"
     style="font-size:24px;font-style:normal;font-variant:normal;font-weight:normal;font-stretch:normal;text-align:start;line-height:125%;writing-mode:lr-tb;text-anchor:start;fill:#000000;fill-opacity:1;stroke:none;stroke-width:1px;stroke-linecap:butt;stroke-linejoin:miter;stroke-opacity:1;font-family:Bitstream Vera Sans;-inkscape-font-specification:Bitstream Vera Sans"
     d="M 185.95703,173.42979 L 185.95703,175.92589 C 185.16014,175.18371 184.30858,174.62903 183.40234,174.26182 C 182.50389,173.89465 181.54686,173.71106 180.53125,173.71104 C 178.53124,173.71106 176.99999,174.32434 175.9375,175.55089 C 174.875,176.76965 174.34375,178.53527 174.34375,180.84776 C 174.34375,183.15246 174.875,184.91808 175.9375,186.14464 C 176.99999,187.36339 178.53124,187.97276 180.53125,187.97276 C 181.54686,187.97276 182.50389,187.78917 183.40234,187.42198 C 184.30858,187.05479 185.16014,186.50011 185.95703,185.75792 L 185.95703,188.23057 C 185.12889,188.79307 184.24999,189.21495 183.32031,189.4962 C 182.39843,189.77745 181.42186,189.91807 180.39062,189.91807 C 177.74218,189.91807 175.65624,189.10948 174.13281,187.49229 C 172.60937,185.8673 171.84765,183.65245 171.84766,180.84776 C 171.84765,178.03527 172.60937,175.82043 174.13281,174.20323 C 175.65624,172.57825 177.74218,171.76575 180.39062,171.76573 C 181.43749,171.76575 182.42186,171.90637 183.34375,172.1876 C 184.27342,172.46106 185.14452,172.87512 185.95703,173.42979"
     id="flowRoot2412" />
  <path
     transform="translate(4.8519313,-2.0793991)"
     style="font-size:24px;font-style:normal;font-variant:normal;font-weight:normal;font-stretch:normal;text-align:start;line-height:125%;writing-mode:lr-tb;text-anchor:start;fill:#000000;fill-opacity:1;stroke:none;stroke-width:1px;stroke-linecap:butt;stroke-linejoin:miter;stroke-opacity:1;font-family:Bitstream Vera Sans;-inkscape-font-specification:Bitstream Vera Sans"
     d="M 217.23047,113.17589 L 228.29297,113.17589 L 228.29297,115.16807 L 219.59766,115.16807 L 219.59766,120.34776 L 227.92969,120.34776 L 227.92969,122.33995 L 219.59766,122.33995 L 219.59766,128.67979 L 228.50391,128.67979 L 228.50391,130.67198 L 217.23047,130.67198 L 217.23047,113.17589"
     id="flowRoot2422" />
  <path
     transform="translate(-13.862661,6.9313305)"
     style="font-size:24px;font-style:normal;font-variant:normal;font-weight:normal;font-stretch:normal;text-align:start;line-height:125%;writing-mode:lr-tb;text-anchor:start;fill:#000000;fill-opacity:1;stroke:none;stroke-width:1px;stroke-linecap:butt;stroke-linejoin:miter;stroke-opacity:1;font-family:Bitstream Vera Sans;-inkscape-font-specification:Bitstream Vera Sans"
     d="M 30.378906,84.621199 L 30.378906,98.226667 L 33.238281,98.226667 C 35.652334,98.226669 37.417957,97.679795 38.535156,96.586042 C 39.660142,95.492297 40.222642,93.765736 40.222656,91.406355 C 40.222642,89.062616 39.660142,87.347774 38.535156,86.261824 C 37.417957,85.168089 35.652334,84.621214 33.238281,84.621199 L 30.378906,84.621199 M 28.011719,82.675886 L 32.875,82.675886 C 36.265614,82.675904 38.753893,83.382934 40.339844,84.79698 C 41.925765,86.203244 42.718733,88.406367 42.71875,91.406355 C 42.718733,94.421986 41.921859,96.636827 40.328125,98.050886 C 38.734362,99.464949 36.249989,100.17198 32.875,100.17198 L 28.011719,100.17198 L 28.011719,82.675886"
     id="flowRoot2430" />
  <path
     style="fill:none;fill-rule:evenodd;stroke:#000000;stroke-width:1px;stroke-linecap:butt;stroke-linejoin:miter;stroke-opacity:1"
     d="M 31.190987,92.879828 L 79.7103,75.551502 L 31.190987,92.879828 z"
     id="path2438" />
  <path
     style="fill:none;fill-rule:evenodd;stroke:#000000;stroke-width:1px;stroke-linecap:butt;stroke-linejoin:miter;stroke-opacity:1"
     d="M 219.03004,119.91202 C 173.97639,118.52575 173.97639,118.52575 173.97639,118.52575 L 219.03004,119.91202 z"
     id="path2440" />
  <path
     style="fill:none;fill-rule:evenodd;stroke:#000000;stroke-width:1px;stroke-linecap:butt;stroke-linejoin:miter;stroke-opacity:1"
     d="M 178.82833,184.37339 L 152.48927,167.04506 L 178.82833,184.37339 z"
     id="path2442" />
  <path
     style="fill:none;fill-rule:evenodd;stroke:#000000;stroke-width:1px;stroke-linecap:butt;stroke-linejoin:miter;stroke-opacity:1"
     d="M 160.11373,253.6867 L 99.811159,233.58584 L 160.11373,253.6867 z"
     id="path2444" />
  <path
     style="fill:none;fill-rule:evenodd;stroke:#000000;stroke-width:1px;stroke-linecap:butt;stroke-linejoin:miter;stroke-opacity:1"
     d="M 103.96996,300.12661 L 47.133047,301.51288 L 103.96996,300.12661 z"
     id="path2446" />
</svg>
